[Header]
FileType HTR
DataType HTRS
FileVersion 1
NumSegments 64
NumFrames 3
DataFrameRate 30
EulerRotationOrder ZYX
CalibrationUnits mm
RotationUnits Degrees
GlobalAxisofGravity Y
BoneLengthAxis Y
ScaleFactor 1.0
[SegmentNames&Hierarchy]
Hips	GLOBAL
Spine	Hips
Spine1	Spine
Spine2	Spine1
Neck	Spine2
Head	Neck
LeftEye	Head
RightEye	Head
LeftShoulder	Spine2
LeftArm	LeftShoulder
LeftForeArm	LeftArm
LeftHand	LeftForeArm
LeftHandThumb1	LeftHand
LeftHandThumb2	LeftHandThumb1
LeftHandThumb3	LeftHandThumb2
LeftHandThumb4	LeftHandThumb3
LeftHandIndex1	LeftHand
LeftHandIndex2	LeftHandIndex1
LeftHandIndex3	LeftHandIndex2
LeftHandIndex4	LeftHandIndex3
LeftHandMiddle1	LeftHand
LeftHandMiddle2	LeftHandMiddle1
LeftHandMiddle3	LeftHandMiddle2
LeftHandMiddle4	LeftHandMiddle3
LeftHandRing1	LeftHand
LeftHandRing2	LeftHandRing1
LeftHandRing3	LeftHandRing2
LeftHandRing4	LeftHandRing3
LeftHandPinky1	LeftHand
LeftHandPinky2	LeftHandPinky1
LeftHandPinky3	LeftHandPinky2
LeftHandPinky4	LeftHandPinky3
RightShoulder	Spine2
RightArm	RightShoulder
RightForeArm	RightArm
RightHand	RightForeArm
RightHandPinky1	RightHand
RightHandPinky2	RightHandPinky1
RightHandPinky3	RightHandPinky2
RightHandPinky4	RightHandPinky3
RightHandRing1	RightHand
RightHandRing2	RightHandRing1
RightHandRing3	RightHandRing2
RightHandRing4	RightHandRing3
RightHandMiddle1	RightHand
RightHandMiddle2	RightHandMiddle1
RightHandMiddle3	RightHandMiddle2
RightHandMiddle4	RightHandMiddle3
RightHandIndex1	RightHand
RightHandIndex2	RightHandIndex1
RightHandIndex3	RightHandIndex2
RightHandIndex4	RightHandIndex3
RightHandThumb1	RightHand
RightHandThumb2	RightHandThumb1
RightHandThumb3	RightHandThumb2
RightHandThumb4	RightHandThumb3
LeftUpLeg	Hips
LeftLeg	LeftUpLeg
LeftFoot	LeftLeg
LeftToeBase	LeftFoot
RightUpLeg	Hips
RightLeg	RightUpLeg
RightFoot	RightLeg
RightToeBase	RightFoot
[BasePosition]
Hips	0	0	0	0	0	0	1
Spine	0	0	0	0	0	0	1
Spine1	0	0	0	0	0	0	1
Spine2	0	0	0	0	0	0	1
Neck	0	0	0	0	0	0	1
Head	0	0	0	0	0	0	1
LeftEye	0	0	0	0	0	0	1
RightEye	0	0	0	0	0	0	1
LeftShoulder	0	0	0	0	0	0	1
LeftArm	0	0	0	0	0	0	1
LeftForeArm	0	0	0	0	0	0	1
LeftHand	0	0	0	0	0	0	1
LeftHandThumb1	0	0	0	0	0	0	1
LeftHandThumb2	0	0	0	0	0	0	1
LeftHandThumb3	0	0	0	0	0	0	1
LeftHandThumb4	0	0	0	0	0	0	1
LeftHandIndex1	0	0	0	0	0	0	1
LeftHandIndex2	0	0	0	0	0	0	1
LeftHandIndex3	0	0	0	0	0	0	1
LeftHandIndex4	0	0	0	0	0	0	1
LeftHandMiddle1	0	0	0	0	0	0	1
LeftHandMiddle2	0	0	0	0	0	0	1
LeftHandMiddle3	0	0	0	0	0	0	1
LeftHandMiddle4	0	0	0	0	0	0	1
LeftHandRing1	0	0	0	0	0	0	1
LeftHandRing2	0	0	0	0	0	0	1
LeftHandRing3	0	0	0	0	0	0	1
LeftHandRing4	0	0	0	0	0	0	1
LeftHandPinky1	0	0	0	0	0	0	1
LeftHandPinky2	0	0	0	0	0	0	1
LeftHandPinky3	0	0	0	0	0	0	1
LeftHandPinky4	0	0	0	0	0	0	1
RightShoulder	0	0	0	0	0	0	1
RightArm	0	0	0	0	0	0	1
RightForeArm	0	0	0	0	0	0	1
RightHand	0	0	0	0	0	0	1
RightHandPinky1	0	0	0	0	0	0	1
RightHandPinky2	0	0	0	0	0	0	1
RightHandPinky3	0	0	0	0	0	0	1
RightHandPinky4	0	0	0	0	0	0	1
RightHandRing1	0	0	0	0	0	0	1
RightHandRing2	0	0	0	0	0	0	1
RightHandRing3	0	0	0	0	0	0	1
RightHandRing4	0	0	0	0	0	0	1
RightHandMiddle1	0	0	0	0	0	0	1
RightHandMiddle2	0	0	0	0	0	0	1
RightHandMiddle3	0	0	0	0	0	0	1
RightHandMiddle4	0	0	0	0	0	0	1
RightHandIndex1	0	0	0	0	0	0	1
RightHandIndex2	0	0	0	0	0	0	1
RightHandIndex3	0	0	0	0	0	0	1
RightHandIndex4	0	0	0	0	0	0	1
RightHandThumb1	0	0	0	0	0	0	1
RightHandThumb2	0	0	0	0	0	0	1
RightHandThumb3	0	0	0	0	0	0	1
RightHandThumb4	0	0	0	0	0	0	1
LeftUpLeg	0	0	0	0	0	0	1
LeftLeg	0	0	0	0	0	0	1
LeftFoot	0	0	0	0	0	0	1
LeftToeBase	0	0	0	0	0	0	1
RightUpLeg	0	0	0	0	0	0	1
RightLeg	0	0	0	0	0	0	1
RightFoot	0	0	0	0	0	0	1
RightToeBase	0	0	0	0	0	0	1
[Hips]
30	-8.897432327	989.6347656	1635.694336	2.029607534	3.173956156	0.1996559948	1.0
31	-4.490631104	1006.17688	1682.818604	2.087941408	2.616005421	0.05690760911	1.0
32	-0.1795508265	1020.363525	1729.057129	1.968125463	2.07662034	-0.1206583083	1.0
[Spine]
30	0	101.8159943	1.315000057	4.971087933	-2.630052805	-0.9744045138	1.0
31	0	101.8159943	1.315000057	5.263348579	-1.930343628	-0.5554121137	1.0
32	0	101.8159943	1.315000057	5.983948708	-1.402256966	-0.1284432262	1.0
[Spine1]
30	0	100.8349991	-10.00800037	2.489638567	-4.546949387	1.895810962	1.0
31	0	100.8349991	-10.00800037	2.559299469	-3.385504007	1.548047781	1.0
32	0	100.8349991	-10.00800037	2.473629713	-2.644672632	1.21092701	1.0
[Spine2]
30	0	91	-13.73399925	2.418658257	-4.518540859	2.069578171	1.0
31	0	91	-13.73399925	2.521679878	-3.350208759	1.689448237	1.0
32	0	91	-13.73399925	2.442300558	-2.605514765	1.329231858	1.0
[Neck]
30	0	166.7169952	-25.16200066	-0.2489428669	2.913913012	0.9875704646	1.0
31	0	166.7169952	-25.16200066	-0.2433192879	2.424554348	0.3732957244	1.0
32	0	166.7169952	-25.16200066	-0.4335216582	2.181229115	-0.1312948912	1.0
[Head]
30	0	96.17900085	16.84999847	-4.714413166	7.434355736	-3.056750536	1.0
31	0	96.17900085	16.84999847	-4.173257828	5.659626961	-2.32852149	1.0
32	0	96.17900085	16.84999847	-3.517560482	4.648778439	-2.159499407	1.0
[LeftEye]
30	30.6760006	64.09500122	92.83599854	0	0	0	1.0
31	30.6760006	64.09500122	92.83599854	0	0	0	1.0
32	30.6760006	64.09500122	92.83599854	0	0	0	1.0
[RightEye]
30	-30.6760006	64.09500122	92.83499908	0	0	0	1.0
31	-30.6760006	64.09500122	92.83499908	0	0	0	1.0
32	-30.6760006	64.09500122	92.83499908	0	0	0	1.0
[LeftShoulder]
30	45.70400238	109.4599991	-26.28000069	2.692750692	-9.335694313	-14.12243462	1.0
31	45.70400238	109.4599991	-26.28000069	2.687026262	-9.212053299	-14.28102207	1.0
32	45.70400238	109.4599991	-26.28000069	2.650815725	-8.879737854	-14.54399967	1.0
[LeftArm]
30	105.923996	-5.24600029	-22.32099915	26.36165619	-13.10392284	-56.89269257	1.0
31	105.923996	-5.24600029	-22.32099915	26.67383575	-10.27634335	-58.90358353	1.0
32	105.923996	-5.24600029	-22.32099915	25.76452827	-6.082275391	-60.30630875	1.0
[LeftForeArm]
30	278.414978	-0.0009999999311	0	3.773330945e-06	-20.2126236	-0.000216680317	1.0
31	278.414978	-0.0009999999311	0	-2.889071027e-07	-14.82305145	-0.0002013663907	1.0
32	278.414978	-0.0009999999311	0	5.447488547e-06	-11.76029301	-0.0002070504706	1.0
[LeftHand]
30	283.2879944	0	0	-1.729707241	-0.01951791905	2.421390533	1.0
31	283.2879944	0	0	0.7817171812	1.929798484	-4.524944782	1.0
32	283.2879944	0	0	2.251008272	3.670389891	-9.273463249	1.0
[LeftHandThumb1]
30	24.6609993	-15.75	26.8239994	5.839803696	2.504242897	11.148386	1.0
31	24.6609993	-15.75	26.8239994	5.839803696	2.504242897	11.148386	1.0
32	24.6609993	-15.75	26.8239994	5.839803696	2.504242897	11.148386	1.0
[LeftHandThumb2]
30	32.29800034	-18.64699936	18.64699936	7.252931595	10.76343632	6.643838406	1.0
31	32.29800034	-18.64699936	18.64699936	7.275758743	9.171006203	6.564957142	1.0
32	32.29800034	-18.64699936	18.64699936	7.394735813	7.86093235	7.162356377	1.0
[LeftHandThumb3]
30	26.52600098	-15.31499958	15.31499958	-1.643862605	-9.584109306	21.64834404	1.0
31	26.52600098	-15.31499958	15.31499958	-1.425748587	-9.117753029	21.32949448	1.0
32	26.52600098	-15.31499958	15.31499958	-0.9240476489	-7.879074097	21.29193306	1.0
[LeftHandThumb4]
30	19.54599953	-11.28499985	11.28499985	0	0	0	1.0
31	19.54599953	-11.28499985	11.28499985	0	0	0	1.0
32	19.54599953	-11.28499985	11.28499985	0	0	0	1.0
[LeftHandIndex1]
30	91.09299469	-5.170999527	22.60099792	-0.8528041244	-1.610123873	-22.74555779	1.0
31	91.09299469	-5.170999527	22.60099792	-0.8873272538	-2.411914349	-21.79528046	1.0
32	91.09299469	-5.170999527	22.60099792	-0.8728212118	-4.176579475	-18.47824478	1.0
[LeftHandIndex2]
30	36.76399994	0	0	-0.1993878335	1.513481259	-15.00938892	1.0
31	36.76399994	0	0	-0.2008893192	1.519070506	-15.06610012	1.0
32	36.76399994	0	0	-0.2016325146	1.521796703	-15.093894	1.0
[LeftHandIndex3]
30	28.83100128	0	0	-0.1993856728	1.513459802	-15.00941944	1.0
31	28.83100128	0	0	-0.2008837014	1.519046426	-15.0661478	1.0
32	28.83100128	0	0	-0.2016191781	1.521780014	-15.09391308	1.0
[LeftHandIndex4]
30	23.92700005	0	0	0	0	0	1.0
31	23.92700005	0	0	0	0	0	1.0
32	23.92700005	0	0	0	0	0	1.0
[LeftHandMiddle1]
30	95.33399963	0	0	-1.941780448	5.291706085	-30.42872047	1.0
31	95.33399963	0	0	-1.886272788	5.10973978	-29.79754829	1.0
32	95.33399963	0	0	-1.679425955	4.38824749	-27.35482216	1.0
[LeftHandMiddle2]
30	36.98199844	0	0	-0.1257066876	1.205622315	-11.90471649	1.0
31	36.98199844	0	0	-0.1256557256	1.205367088	-11.90215588	1.0
32	36.98199844	0	0	-0.1256354153	1.205295801	-11.90129566	1.0
[LeftHandMiddle3]
30	29.50900078	0	0	-0.1710362434	1.403475165	-13.89527512	1.0
31	29.50900078	0	0	-0.1709686667	1.403227329	-13.89270973	1.0
32	29.50900078	0	0	-0.1709475666	1.403137445	-13.89190006	1.0
[LeftHandMiddle4]
30	28.3390007	0	0	0	0	0	1.0
31	28.3390007	0	0	0	0	0	1.0
32	28.3390007	0	0	0	0	0	1.0
[LeftHandRing1]
30	91.04499817	-0.4390000105	-18.65100098	-2.060106277	7.30820179	-31.79920387	1.0
31	91.04499817	-0.4390000105	-18.65100098	-1.993931174	7.137336731	-31.05047226	1.0
32	91.04499817	-0.4390000105	-18.65100098	-1.750455379	6.848435402	-28.21924782	1.0
[LeftHandRing2]
30	31.54000092	0	0	-0.3273687661	1.928272128	-19.26912689	1.0
31	31.54000092	0	0	-0.3282990754	1.930956125	-19.29693031	1.0
32	31.54000092	0	0	-0.329128474	1.933330059	-19.32164192	1.0
[LeftHandRing3]
30	29.37700081	0	0	-0.3975502849	2.118273497	-21.25691986	1.0
31	29.37700081	0	0	-0.3986026049	2.120964527	-21.28520203	1.0
32	29.37700081	0	0	-0.3995326757	2.123333216	-21.31022644	1.0
[LeftHandRing4]
30	26.47500038	0	0	0	0	0	1.0
31	26.47500038	0	0	0	0	0	1.0
32	26.47500038	0	0	0	0	0	1.0
[LeftHandPinky1]
30	80.77799988	-4.887000084	-38.06099701	-2.587200165	7.18721056	-35.64543152	1.0
31	80.77799988	-4.887000084	-38.06099701	-2.610781908	7.77503252	-35.39680862	1.0
32	80.77799988	-4.887000084	-38.06099701	-2.574895144	8.54754734	-34.33029938	1.0
[LeftHandPinky2]
30	36	0	0	-0.2677657902	1.74860549	-17.41156387	1.0
31	36	0	0	-0.270930618	1.758612394	-17.51467514	1.0
32	36	0	0	-0.2755413055	1.773139	-17.66418457	1.0
[LeftHandPinky3]
30	21.14200211	0	0	-0.2677692175	1.74857235	-17.41156769	1.0
31	21.14200211	0	0	-0.2709260285	1.758615851	-17.51466179	1.0
32	21.14200211	0	0	-0.2755357325	1.773138404	-17.66417503	1.0
[LeftHandPinky4]
30	19.75699997	0	0	0	0	0	1.0
31	19.75699997	0	0	0	0	0	1.0
32	19.75699997	0	0	0	0	0	1.0
[RightShoulder]
30	-45.70000076	109.4620056	-26.28000069	1.514593959	2.933992863	16.66128922	1.0
31	-45.70000076	109.4620056	-26.28000069	1.588720083	3.357018232	16.31750298	1.0
32	-45.70000076	109.4620056	-26.28000069	1.642031193	3.736081839	15.89940071	1.0
[RightArm]
30	-105.9280014	-5.248000145	-22.32099915	20.50504684	9.201283455	53.89891815	1.0
31	-105.9280014	-5.248000145	-22.32099915	21.72729683	12.49482155	53.90874481	1.0
32	-105.9280014	-5.248000145	-22.32099915	23.51858711	15.2808609	53.60141754	1.0
[RightForeArm]
30	-278.414978	0	0	2.205418241e-06	16.93719101	5.352419066e-06	1.0
31	-278.414978	0	0	2.267760465e-06	19.41622353	5.989882084e-06	1.0
32	-278.414978	0	0	4.193293535e-06	22.43052292	1.411640187e-05	1.0
[RightHand]
30	-283.2879944	0	0.0009999999311	-3.965088367	-5.989601135	11.81814671	1.0
31	-283.2879944	0	0.0009999999311	-4.30697155	-2.765788078	8.773508072	1.0
32	-283.2879944	0	0.0009999999311	-1.915889144	0.3083278537	6.443108082	1.0
[RightHandPinky1]
30	-80.76699829	-4.885000229	-38.06000137	-2.213945866	-1.578669667	30.48540878	1.0
31	-80.76699829	-4.885000229	-38.06000137	-2.041746378	-2.324139595	29.86150742	1.0
32	-80.76699829	-4.885000229	-38.06000137	-1.939379215	-2.756803036	29.47163963	1.0
[RightHandPinky2]
30	-36	0	0.0009999999311	-0.5675518513	-2.223125458	28.65924263	1.0
31	-36	0	0.0009999999311	-0.5662034154	-2.220661879	28.62442207	1.0
32	-36	0	0.0009999999311	-0.5658262968	-2.219969988	28.61473083	1.0
[RightHandPinky3]
30	-21.14200211	0	0	-0.1775275916	-1.271153331	15.90021801	1.0
31	-21.14200211	0	0	-0.1771115661	-1.269684672	15.88148117	1.0
32	-21.14200211	0	0	-0.177082628	-1.269596577	15.88025856	1.0
[RightHandPinky4]
30	-19.75699997	0	0	0	0	0	1.0
31	-19.75699997	0	0	0	0	0	1.0
32	-19.75699997	0	0	0	0	0	1.0
[RightHandRing1]
30	-91.03599548	-0.4390000105	-18.65100098	-1.479705095	-1.802340865	26.79126549	1.0
31	-91.03599548	-0.4390000105	-18.65100098	-1.383571625	-2.054739475	25.43975639	1.0
32	-91.03599548	-0.4390000105	-18.65100098	-1.323661923	-2.199752569	24.58763695	1.0
[RightHandRing2]
30	-31.54000092	0	0	-1.494814038	-3.408913851	47.34513092	1.0
31	-31.54000092	0	0	-1.494807482	-3.408904314	47.34504318	1.0
32	-31.54000092	0	0	-1.496839643	-3.410777807	47.37916946	1.0
[RightHandRing3]
30	-29.37700081	0	0	-0.370487541	-1.816570044	23.0528717	1.0
31	-29.37700081	0	0	-0.3705298901	-1.816665173	23.05416489	1.0
32	-29.37700081	0	0	-0.3716291487	-1.819255352	23.08888054	1.0
[RightHandRing4]
30	-26.47500038	0	0	0	0	0	1.0
31	-26.47500038	0	0	0	0	0	1.0
32	-26.47500038	0	0	0	0	0	1.0
[RightHandMiddle1]
30	-95.32500458	0	0	-1.263279557	-0.09949629009	23.80937958	1.0
31	-95.32500458	0	0	-1.199531674	0.01285093836	22.89023209	1.0
32	-95.32500458	0	0	-1.162096977	0.1055233404	22.34502792	1.0
[RightHandMiddle2]
30	-36.98199844	0	0	-0.8575888276	-2.686477423	35.40330124	1.0
31	-36.98199844	0	0	-0.854491055	-2.682115555	35.33709717	1.0
32	-36.98199844	0	0	-0.8534648418	-2.680691957	35.31536102	1.0
[RightHandMiddle3]
30	-29.50900078	0	0	-0.2970373034	-1.635338545	20.61320496	1.0
31	-29.50900078	0	0	-0.2951487601	-1.63032341	20.54691887	1.0
32	-29.50900078	0	0	-0.2945290804	-1.628658772	20.52500153	1.0
[RightHandMiddle4]
30	-28.3390007	0	0.0009999999311	0	0	0	1.0
31	-28.3390007	0	0.0009999999311	0	0	0	1.0
32	-28.3390007	0	0.0009999999311	0	0	0	1.0
[RightHandIndex1]
30	-91.08300018	-5.167999744	22.60099792	-1.266986489	4.750778675	24.31202316	1.0
31	-91.08300018	-5.167999744	22.60099792	-1.136555314	4.698191643	22.41889381	1.0
32	-91.08300018	-5.167999744	22.60099792	-1.041309357	4.676873684	21.00098801	1.0
[RightHandIndex2]
30	-36.76399994	0	0	-0.3946634531	-1.872331977	23.8039341	1.0
31	-36.76399994	0	0	-0.3942560852	-1.871419072	23.79156303	1.0
32	-36.76399994	0	0	-0.3930221498	-1.868612885	23.75365257	1.0
[RightHandIndex3]
30	-28.83100128	0	0	-0.07840780914	-0.849422276	10.54765701	1.0
31	-28.83100128	0	0	-0.0782141462	-0.8483574986	10.53438568	1.0
32	-28.83100128	0	0	-0.0775834471	-0.844979763	10.49184227	1.0
[RightHandIndex4]
30	-23.92700005	0	0	0	0	0	1.0
31	-23.92700005	0	0	0	0	0	1.0
32	-23.92700005	0	0	0	0	0	1.0
[RightHandThumb1]
30	-24.64799881	-15.72700024	26.82600021	12.78110313	-2.167885065	-4.410644054	1.0
31	-24.64799881	-15.72700024	26.82600021	12.78110313	-2.167885065	-4.410644054	1.0
32	-24.64799881	-15.72700024	26.82600021	12.78110313	-2.167885065	-4.410644054	1.0
[RightHandThumb2]
30	-32.29800034	-18.64699936	18.64699936	9.310830116	-17.81083298	-9.342487335	1.0
31	-32.29800034	-18.64699936	18.64699936	8.739608765	-17.8859005	-9.751895905	1.0
32	-32.29800034	-18.64699936	18.64699936	8.097249031	-17.98669434	-10.08614254	1.0
[RightHandThumb3]
30	-26.52600098	-15.31399918	15.31399918	-15.5672226	-4.654524803	-11.30644321	1.0
31	-26.52600098	-15.31399918	15.31399918	-15.53141212	-4.73931551	-11.27967262	1.0
32	-26.52600098	-15.31399918	15.31399918	-15.50068951	-4.8120327	-11.25672722	1.0
[RightHandThumb4]
30	-19.54599953	-11.28499985	11.28499985	0	0	0	1.0
31	-19.54599953	-11.28499985	11.28499985	0	0	0	1.0
32	-19.54599953	-11.28499985	11.28499985	0	0	0	1.0
[LeftUpLeg]
30	82.07800293	-67.51699829	-15.99599934	-17.4316597	11.57976055	1.994117498	1.0
31	82.07800293	-67.51699829	-15.99599934	-23.45766258	11.45419979	0.8914068937	1.0
32	82.07800293	-67.51699829	-15.99599934	-27.33004761	10.56132221	0.1277115494	1.0
[LeftLeg]
30	0	-443.7049866	2.845999956	71.51696014	-5.068695068	-2.60783267	1.0
31	0	-443.7049866	2.845999956	68.21201324	-3.601047993	-4.274783134	1.0
32	0	-443.7049866	2.845999956	59.4846611	-2.367196798	-4.24090147	1.0
[LeftFoot]
30	0	-444.2789917	-29.8219986	4.985236645	0.09490454942	-2.875517607	1.0
31	0	-444.2789917	-29.8219986	2.824170589	0.05567190796	-2.138887644	1.0
32	0	-444.2789917	-29.8219986	0.7328864336	0.06565622985	-1.63631165	1.0
[LeftToeBase]
30	0	-87.28699493	107.1060028	-9.605222702	1.188501756e-06	-7.31324144e-06	1.0
31	0	-87.28699493	107.1060028	-8.942777634	-1.585054974e-06	8.768791417e-07	1.0
32	0	-87.28699493	107.1060028	-8.35185051	4.780237759e-06	-8.511455576e-07	1.0
[RightUpLeg]
30	-82.07800293	-67.51699829	-15.99599934	-27.55623055	-6.934012413	2.333498716	1.0
31	-82.07800293	-67.51699829	-15.99599934	-21.78099632	-6.365636349	2.946888685	1.0
32	-82.07800293	-67.51699829	-15.99599934	-15.12988186	-6.703867435	3.310666084	1.0
[RightLeg]
30	0	-443.7049866	2.861999989	33.93265152	1.820641398	1.221123219	1.0
31	0	-443.7049866	2.861999989	28.57990074	2.624253273	-0.8530669808	1.0
32	0	-443.7049866	2.861999989	21.52444839	3.608144522	-2.210728884	1.0
[RightFoot]
30	0	-444.2770081	-29.83799934	-9.656200409	-0.3045547605	-2.574533939	1.0
31	0	-444.2770081	-29.83799934	-10.1965065	-0.1285616755	-1.068589926	1.0
32	0	-444.2770081	-29.83799934	-9.630169868	0.002688366221	-0.002902925014	1.0
[RightToeBase]
30	0	-87.28699493	107.1060028	-5.719436646	1.484130934e-07	8.188769698e-07	1.0
31	0	-87.28699493	107.1060028	-5.385513783	6.988140626e-07	4.647096148e-07	1.0
32	0	-87.28699493	107.1060028	-5.054419041	-6.765567662e-08	-1.253809927e-07	1.0
[EndOfFile]
